<svg xmlns="http://www.w3.org/2000/svg" xmlns:xlink="http://www.w3.org/1999/xlink" id="Calque_1" x="0px" y="0px" viewBox="0 0 16 16" style="enable-background:new 0 0 16 16;" xml:space="preserve">
<style type="text/css">
	.st0{fill:#020203;}
</style>
<g>
	<path d="M1272.59-850.06c-6.5-4.02-14-6.03-22.51-6.03c-8.51,0-16.02,2.01-22.54,6.03c-6.52,4.02-11.62,9.74-15.29,17.17   c-3.68,7.42-5.51,16.31-5.51,26.67v4.09c0,10.36,1.85,19.25,5.55,26.67c3.7,7.42,8.82,13.13,15.36,17.13c6.54,4,14.07,6,22.58,6   c8.51,0,16-2,22.47-6c6.47-4,11.54-9.71,15.19-17.13c3.65-7.42,5.48-16.31,5.48-26.67v-4.09c0-10.36-1.84-19.25-5.51-26.67   C1284.17-840.31,1279.08-846.03,1272.59-850.06z M1271.37-802.13c0,6.89-0.82,12.7-2.46,17.44c-1.64,4.74-4.05,8.33-7.21,10.79   c-3.17,2.45-6.99,3.68-11.48,3.68c-4.58,0-8.45-1.22-11.62-3.68c-3.17-2.45-5.58-6.04-7.25-10.79c-1.66-4.74-2.5-10.55-2.5-17.44   v-4.23c0-6.94,0.82-12.76,2.46-17.48c1.64-4.72,4.03-8.28,7.18-10.68c3.14-2.4,7.01-3.61,11.58-3.61c4.48,0,8.32,1.2,11.51,3.61   c3.19,2.4,5.62,5.96,7.28,10.68c1.66,4.72,2.5,10.54,2.5,17.48V-802.13z"></path>
	<path d="M1405.99-848.6c-6.96-4.07-14.99-6.1-24.1-6.1h-9.57h-12.83h-9.02v100.98h9.43h12.41h9.43c9.2,0,17.28-2.02,24.24-6.07   c6.96-4.04,12.4-9.7,16.33-16.96c3.93-7.26,5.89-15.7,5.89-25.32v-4.3c0-9.62-1.97-18.04-5.89-25.28   C1418.39-838.88,1412.94-844.53,1405.99-848.6z M1406.16-802.06c0,6.66-0.93,12.28-2.77,16.85c-1.85,4.58-4.59,8.05-8.22,10.4   c-3.63,2.36-8.1,3.54-13.42,3.54h-9.43v-65.82h9.57c5.27,0,9.71,1.16,13.32,3.47c3.61,2.31,6.33,5.73,8.18,10.27   c1.85,4.53,2.77,10.15,2.77,16.85V-802.06z"></path>
	<polygon points="1546.43,-814.13 1507.17,-814.13 1507.17,-854.7 1485.32,-854.7 1485.32,-753.72 1507.17,-753.72 1507.17,-796.58    1546.43,-796.58 1546.43,-753.72 1568.2,-753.72 1568.2,-854.7 1546.43,-854.7  "></polygon>
	<path d="M1683.5-788.33c0,4.35-0.66,7.87-1.98,10.58c-1.32,2.71-3.25,4.69-5.79,5.96c-2.54,1.27-5.64,1.91-9.29,1.91   c-3.61,0-6.7-0.63-9.29-1.91s-4.55-3.26-5.89-5.96c-1.34-2.71-2.01-6.23-2.01-10.58v-66.37h-21.85v66.37   c0,7.82,1.65,14.4,4.96,19.77c3.31,5.37,7.91,9.41,13.8,12.14c5.89,2.73,12.66,4.09,20.29,4.09c7.58,0,14.3-1.36,20.15-4.09   c5.85-2.73,10.44-6.77,13.77-12.14c3.33-5.36,4.99-11.95,4.99-19.77v-66.37h-21.85V-788.33z"></path>
	<polygon points="1825.5,-789.65 1786.25,-854.7 1764.47,-854.7 1764.47,-753.72 1786.25,-753.72 1786.25,-818.71 1825.43,-753.72    1847.21,-753.72 1847.21,-854.7 1825.5,-854.7  "></polygon>
	<polygon points="1929.15,-771.27 1929.15,-797.14 1968.54,-797.14 1968.54,-814.13 1929.15,-814.13 1929.15,-837.09    1975.41,-837.09 1975.41,-854.7 1929.15,-854.7 1922.14,-854.7 1907.3,-854.7 1907.3,-753.72 1922.14,-753.72 1929.15,-753.72    1975.48,-753.72 1975.48,-771.27  "></polygon>
</g>
<g>
	<path d="M40.93,632.84c-6.5-4.02-14-6.03-22.51-6.03c-8.51,0-16.02,2.01-22.54,6.03c-6.52,4.02-11.62,9.74-15.29,17.17   c-3.68,7.42-5.51,16.31-5.51,26.67v4.09c0,10.36,1.85,19.25,5.55,26.67c3.7,7.42,8.82,13.13,15.36,17.13c6.54,4,14.07,6,22.58,6   c8.51,0,16-2,22.47-6c6.47-4,11.54-9.71,15.19-17.13c3.65-7.42,5.48-16.31,5.48-26.67v-4.09c0-10.36-1.84-19.25-5.51-26.67   C52.51,642.58,47.42,636.86,40.93,632.84z M39.71,680.76c0,6.89-0.82,12.7-2.46,17.44c-1.64,4.74-4.05,8.33-7.21,10.79   c-3.17,2.45-6.99,3.68-11.48,3.68c-4.58,0-8.45-1.22-11.62-3.68c-3.17-2.45-5.58-6.04-7.25-10.79c-1.66-4.74-2.5-10.55-2.5-17.44   v-4.23c0-6.94,0.82-12.76,2.46-17.48c1.64-4.72,4.03-8.28,7.18-10.68c3.14-2.4,7.01-3.61,11.58-3.61c4.48,0,8.32,1.2,11.51,3.61   c3.19,2.4,5.62,5.96,7.28,10.68c1.66,4.72,2.5,10.54,2.5,17.48V680.76z"></path>
	<path d="M174.33,634.29c-6.96-4.07-14.99-6.1-24.1-6.1h-9.57h-12.83h-9.02v100.98h9.43h12.41h9.43c9.2,0,17.28-2.02,24.24-6.07   c6.96-4.04,12.4-9.7,16.33-16.96c3.93-7.26,5.89-15.7,5.89-25.32v-4.3c0-9.62-1.97-18.04-5.89-25.28   C186.73,644.02,181.28,638.36,174.33,634.29z M174.5,680.83c0,6.66-0.93,12.28-2.77,16.85c-1.85,4.58-4.59,8.05-8.22,10.4   c-3.63,2.36-8.1,3.54-13.42,3.54h-9.43v-65.82h9.57c5.27,0,9.71,1.16,13.32,3.47c3.61,2.31,6.33,5.73,8.18,10.27   c1.85,4.53,2.77,10.15,2.77,16.85V680.83z"></path>
	<polygon points="314.77,668.76 275.51,668.76 275.51,628.19 253.66,628.19 253.66,729.17 275.51,729.17 275.51,686.31    314.77,686.31 314.77,729.17 336.54,729.17 336.54,628.19 314.77,628.19  "></polygon>
	<path d="M451.84,694.56c0,4.35-0.66,7.87-1.98,10.58c-1.32,2.71-3.25,4.69-5.79,5.96c-2.54,1.27-5.64,1.91-9.29,1.91   c-3.61,0-6.7-0.63-9.29-1.91s-4.55-3.26-5.89-5.96c-1.34-2.71-2.01-6.23-2.01-10.58v-66.37h-21.85v66.37   c0,7.82,1.65,14.4,4.96,19.77c3.31,5.37,7.91,9.41,13.8,12.14c5.89,2.73,12.66,4.09,20.29,4.09c7.58,0,14.3-1.36,20.15-4.09   c5.85-2.73,10.44-6.77,13.77-12.14c3.33-5.36,4.99-11.95,4.99-19.77v-66.37h-21.85V694.56z"></path>
	<polygon points="593.84,693.25 554.59,628.19 532.81,628.19 532.81,729.17 554.59,729.17 554.59,664.19 593.77,729.17    615.55,729.17 615.55,628.19 593.84,628.19  "></polygon>
	<polygon points="697.49,711.63 697.49,685.76 736.88,685.76 736.88,668.76 697.49,668.76 697.49,645.81 743.75,645.81    743.75,628.19 697.49,628.19 690.48,628.19 675.64,628.19 675.64,729.17 690.48,729.17 697.49,729.17 743.82,729.17 743.82,711.63     "></polygon>
</g>
<g>
	<path d="M40.93-850.06c-6.5-4.02-14-6.03-22.51-6.03c-8.51,0-16.02,2.01-22.54,6.03c-6.52,4.02-11.62,9.74-15.29,17.17   c-3.68,7.42-5.51,16.31-5.51,26.67v4.09c0,10.36,1.85,19.25,5.55,26.67c3.7,7.42,8.82,13.13,15.36,17.13c6.54,4,14.07,6,22.58,6   c8.51,0,16-2,22.47-6c6.47-4,11.54-9.71,15.19-17.13c3.65-7.42,5.48-16.31,5.48-26.67v-4.09c0-10.36-1.84-19.25-5.51-26.67   C52.51-840.31,47.42-846.03,40.93-850.06z M39.71-802.13c0,6.89-0.82,12.7-2.46,17.44c-1.64,4.74-4.05,8.33-7.21,10.79   c-3.17,2.45-6.99,3.68-11.48,3.68c-4.58,0-8.45-1.22-11.62-3.68c-3.17-2.45-5.58-6.04-7.25-10.79c-1.66-4.74-2.5-10.55-2.5-17.44   v-4.23c0-6.94,0.82-12.76,2.46-17.48c1.64-4.72,4.03-8.28,7.18-10.68c3.14-2.4,7.01-3.61,11.58-3.61c4.48,0,8.32,1.2,11.51,3.61   c3.19,2.4,5.62,5.96,7.28,10.68c1.66,4.72,2.5,10.54,2.5,17.48V-802.13z"></path>
	<path d="M174.33-848.6c-6.96-4.07-14.99-6.1-24.1-6.1h-9.57h-12.83h-9.02v100.98h9.43h12.41h9.43c9.2,0,17.28-2.02,24.24-6.07   c6.96-4.04,12.4-9.7,16.33-16.96c3.93-7.26,5.89-15.7,5.89-25.32v-4.3c0-9.62-1.97-18.04-5.89-25.28   C186.73-838.88,181.28-844.53,174.33-848.6z M174.5-802.06c0,6.66-0.93,12.28-2.77,16.85c-1.85,4.58-4.59,8.05-8.22,10.4   c-3.63,2.36-8.1,3.54-13.42,3.54h-9.43v-65.82h9.57c5.27,0,9.71,1.16,13.32,3.47c3.61,2.31,6.33,5.73,8.18,10.27   c1.85,4.53,2.77,10.15,2.77,16.85V-802.06z"></path>
	<polygon points="314.77,-814.13 275.51,-814.13 275.51,-854.7 253.66,-854.7 253.66,-753.72 275.51,-753.72 275.51,-796.58    314.77,-796.58 314.77,-753.72 336.54,-753.72 336.54,-854.7 314.77,-854.7  "></polygon>
	<path d="M451.84-788.33c0,4.35-0.66,7.87-1.98,10.58c-1.32,2.71-3.25,4.69-5.79,5.96c-2.54,1.27-5.64,1.91-9.29,1.91   c-3.61,0-6.7-0.63-9.29-1.91s-4.55-3.26-5.89-5.96c-1.34-2.71-2.01-6.23-2.01-10.58v-66.37h-21.85v66.37   c0,7.82,1.65,14.4,4.96,19.77c3.31,5.37,7.91,9.41,13.8,12.14c5.89,2.73,12.66,4.09,20.29,4.09c7.58,0,14.3-1.36,20.15-4.09   c5.85-2.73,10.44-6.77,13.77-12.14c3.33-5.36,4.99-11.95,4.99-19.77v-66.37h-21.85V-788.33z"></path>
	<polygon points="593.84,-789.65 554.59,-854.7 532.81,-854.7 532.81,-753.72 554.59,-753.72 554.59,-818.71 593.77,-753.72    615.55,-753.72 615.55,-854.7 593.84,-854.7  "></polygon>
	<polygon points="697.49,-771.27 697.49,-797.14 736.88,-797.14 736.88,-814.13 697.49,-814.13 697.49,-837.09 743.75,-837.09    743.75,-854.7 697.49,-854.7 690.48,-854.7 675.64,-854.7 675.64,-753.72 690.48,-753.72 697.49,-753.72 743.82,-753.72    743.82,-771.27  "></polygon>
</g>
<path class="st0" d="M-546.96-795.34c-16.52-34.82-38.48-65.58-64.59-91.53l26.42-45.75c1.39-2.41,1.11-5.43-0.69-7.55  c-63.14-74.22-155.25-116.79-252.7-116.79c-97.45,0-189.55,42.57-252.69,116.79c-1.8,2.12-2.08,5.14-0.69,7.55l26.41,45.75  c-26.1,25.95-48.07,56.71-64.59,91.54c-1.22,2.58-0.57,5.51,1.34,7.42l-0.04,0.04l196.83,196.83c-1.96,10.46-3.03,21.35-3.03,33  c0,3.63,2.94,6.57,6.57,6.57h179.78c3.63,0,6.57-2.94,6.57-6.57c0-11.65-1.07-22.53-3.03-33l196.83-196.83l-0.04-0.04  C-546.38-789.82-545.73-792.75-546.96-795.34z M-838.51-1043.81c92.04,0,179.12,39.54,239.66,108.66l-22.47,38.92  c-58.09-53.05-134.59-83.47-217.19-83.47c-82.6,0-159.1,30.42-217.19,83.46l-22.47-38.92  C-1017.63-1004.27-930.55-1043.81-838.51-1043.81z M-775.24-657.89c-15.06-20.15-38.12-31.7-63.27-31.7  c-25.15,0-48.21,11.55-63.27,31.7c-3.22,4.3-6.12,8.61-8.84,12.94l-138.31-239.56c55.97-52.08,130.19-82.03,210.42-82.03  c80.24,0,154.45,29.95,210.42,82.04L-766.4-644.95C-769.12-649.28-772.02-653.59-775.24-657.89z M-1116.14-793.83  c15.07-30.62,34.55-57.89,57.49-81.22l140.52,243.38c-4.24,8.33-7.62,16.85-10.22,25.63L-1116.14-793.83z M-921.72-564.61  c1.08-32.65,10.37-58.51,30.47-85.41c12.55-16.79,31.77-26.42,52.74-26.42s40.19,9.63,52.74,26.42  c20.11,26.9,29.4,52.77,30.47,85.41H-921.72z M-758.89-631.66l140.52-243.38c22.94,23.33,42.42,50.59,57.49,81.22l-187.79,187.79  C-751.26-614.81-754.64-623.33-758.89-631.66z"></path>
<path class="st0" d="M15.48,8.23c-0.42-0.89-0.99-1.68-1.66-2.35L14.5,4.7c0.04-0.06,0.03-0.14-0.02-0.19c-1.62-1.91-3.99-3-6.49-3  c-2.5,0-4.87,1.09-6.49,3C1.47,4.56,1.46,4.64,1.5,4.7l0.68,1.17C1.5,6.54,0.94,7.33,0.52,8.23C0.48,8.29,0.5,8.37,0.55,8.42l0,0  l5.05,5.05c-0.05,0.27-0.08,0.55-0.08,0.85c0,0.09,0.08,0.17,0.17,0.17h4.61c0.09,0,0.17-0.08,0.17-0.17c0-0.3-0.03-0.58-0.08-0.85  l5.05-5.05l0,0C15.5,8.37,15.52,8.29,15.48,8.23z M8,1.85c2.36,0,4.6,1.02,6.15,2.79l-0.58,1C12.08,4.28,10.12,3.5,8,3.5  c-2.12,0-4.08,0.78-5.58,2.14l-0.58-1C3.4,2.86,5.64,1.85,8,1.85z M9.62,11.76C9.24,11.24,8.65,10.94,8,10.94  c-0.65,0-1.24,0.3-1.62,0.81c-0.08,0.11-0.16,0.22-0.23,0.33L2.6,5.94C4.04,4.6,5.94,3.83,8,3.83c2.06,0,3.96,0.77,5.4,2.11  l-3.55,6.15C9.78,11.98,9.71,11.87,9.62,11.76z M0.87,8.27c0.39-0.79,0.89-1.49,1.48-2.08l3.61,6.25c-0.11,0.21-0.2,0.43-0.26,0.66  L0.87,8.27z M5.86,14.15c0.03-0.84,0.27-1.5,0.78-2.19c0.32-0.43,0.82-0.68,1.35-0.68s1.03,0.25,1.35,0.68  c0.52,0.69,0.75,1.35,0.78,2.19H5.86z M10.04,12.43l3.61-6.25c0.59,0.6,1.09,1.3,1.48,2.08l-4.82,4.82  C10.24,12.86,10.15,12.64,10.04,12.43z"></path>
<path class="st0" d="M5544.96-1390.56c-16.52-34.82-38.48-65.58-64.59-91.53l26.42-45.75c1.39-2.41,1.11-5.43-0.69-7.55  c-63.14-74.22-155.25-116.79-252.7-116.79c-97.45,0-189.55,42.57-252.69,116.79c-1.8,2.12-2.08,5.14-0.69,7.55l26.42,45.75  c-26.1,25.95-48.06,56.71-64.59,91.54c-1.22,2.58-0.57,5.51,1.33,7.42l-0.04,0.04l196.83,196.83c-1.96,10.46-3.03,21.35-3.03,33  c0,3.63,2.94,6.57,6.57,6.57h179.78c3.63,0,6.57-2.94,6.57-6.57c0-11.65-1.07-22.53-3.03-33l196.83-196.83l-0.04-0.04  C5545.53-1385.05,5546.18-1387.98,5544.96-1390.56z M5253.4-1639.04c92.04,0,179.12,39.54,239.66,108.66l-22.47,38.92  c-58.09-53.05-134.59-83.47-217.19-83.47c-82.6,0-159.1,30.42-217.19,83.46l-22.47-38.92  C5074.28-1599.49,5161.36-1639.04,5253.4-1639.04z M5316.67-1253.12c-15.06-20.15-38.12-31.7-63.27-31.7  c-25.15,0-48.21,11.55-63.27,31.7c-3.22,4.3-6.12,8.61-8.84,12.94l-138.31-239.56c55.97-52.08,130.19-82.03,210.42-82.03  c80.24,0,154.45,29.95,210.42,82.04l-138.31,239.56C5322.79-1244.5,5319.89-1248.82,5316.67-1253.12z M4975.77-1389.05  c15.07-30.62,34.55-57.89,57.49-81.22l140.52,243.38c-4.24,8.33-7.62,16.85-10.22,25.63L4975.77-1389.05z M5170.19-1159.84  c1.08-32.65,10.37-58.51,30.47-85.41c12.55-16.79,31.77-26.42,52.74-26.42s40.19,9.63,52.74,26.42c20.1,26.9,29.4,52.77,30.47,85.41  H5170.19z M5333.03-1226.89l140.52-243.38c22.94,23.33,42.42,50.59,57.49,81.22l-187.79,187.79  C5340.65-1210.04,5337.27-1218.55,5333.03-1226.89z"></path>
<g>
	<g>
		<path d="M3629.69-453.8c-6.5-4.02-14-6.03-22.51-6.03c-8.51,0-16.02,2.01-22.54,6.03c-6.52,4.02-11.62,9.74-15.29,17.17    c-3.68,7.42-5.51,16.31-5.51,26.67v4.09c0,10.36,1.85,19.25,5.55,26.67c3.7,7.42,8.82,13.13,15.36,17.13c6.54,4,14.07,6,22.58,6    c8.51,0,16-2,22.47-6c6.47-4,11.54-9.71,15.19-17.13c3.65-7.42,5.48-16.31,5.48-26.67v-4.09c0-10.36-1.84-19.25-5.51-26.67    C3641.27-444.05,3636.19-449.77,3629.69-453.8z M3628.48-405.87c0,6.89-0.82,12.7-2.46,17.44c-1.64,4.74-4.05,8.33-7.21,10.79    c-3.17,2.45-6.99,3.68-11.48,3.68c-4.58,0-8.45-1.22-11.62-3.68c-3.17-2.45-5.58-6.04-7.25-10.79c-1.66-4.74-2.5-10.55-2.5-17.44    v-4.23c0-6.94,0.82-12.76,2.46-17.48c1.64-4.72,4.03-8.28,7.18-10.68c3.14-2.4,7.01-3.61,11.58-3.61c4.48,0,8.32,1.2,11.51,3.61    c3.19,2.4,5.62,5.96,7.28,10.68c1.66,4.72,2.5,10.54,2.5,17.48V-405.87z"></path>
		<path d="M3763.09-452.34c-6.96-4.07-14.99-6.1-24.1-6.1h-9.57h-12.83h-9.02v100.98h9.43h12.41h9.43c9.2,0,17.28-2.02,24.24-6.07    c6.96-4.04,12.4-9.7,16.33-16.96c3.93-7.26,5.89-15.7,5.89-25.32v-4.3c0-9.62-1.97-18.04-5.89-25.28    C3775.5-442.62,3770.05-448.27,3763.09-452.34z M3763.27-405.8c0,6.66-0.93,12.28-2.77,16.85c-1.85,4.58-4.59,8.05-8.22,10.4    c-3.63,2.36-8.1,3.54-13.42,3.54h-9.43v-65.82h9.57c5.27,0,9.71,1.16,13.32,3.47c3.61,2.31,6.33,5.73,8.18,10.27    c1.85,4.53,2.77,10.15,2.77,16.85V-405.8z"></path>
		<polygon points="3903.53,-417.87 3864.28,-417.87 3864.28,-458.44 3842.43,-458.44 3842.43,-357.46 3864.28,-357.46     3864.28,-400.32 3903.53,-400.32 3903.53,-357.46 3925.31,-357.46 3925.31,-458.44 3903.53,-458.44   "></polygon>
		<path d="M4040.61-392.07c0,4.35-0.66,7.87-1.98,10.58c-1.32,2.71-3.25,4.69-5.79,5.96c-2.54,1.27-5.64,1.91-9.29,1.91    c-3.61,0-6.7-0.63-9.29-1.91s-4.55-3.26-5.89-5.96c-1.34-2.71-2.01-6.23-2.01-10.58v-66.37h-21.85v66.37    c0,7.82,1.65,14.4,4.96,19.77c3.31,5.37,7.91,9.41,13.8,12.14c5.89,2.73,12.66,4.09,20.29,4.09c7.58,0,14.3-1.36,20.15-4.09    c5.85-2.73,10.44-6.77,13.77-12.14c3.33-5.36,4.99-11.95,4.99-19.77v-66.37h-21.85V-392.07z"></path>
		<polygon points="4182.61,-393.39 4143.35,-458.44 4121.58,-458.44 4121.58,-357.46 4143.35,-357.46 4143.35,-422.45     4182.54,-357.46 4204.32,-357.46 4204.32,-458.44 4182.61,-458.44   "></polygon>
		<polygon points="4286.25,-375.01 4286.25,-400.88 4325.65,-400.88 4325.65,-417.87 4286.25,-417.87 4286.25,-440.83     4332.52,-440.83 4332.52,-458.44 4286.25,-458.44 4279.25,-458.44 4264.41,-458.44 4264.41,-357.46 4279.25,-357.46     4286.25,-357.46 4332.58,-357.46 4332.58,-375.01   "></polygon>
	</g>
	<g>
		<path d="M3582.05-1233.21c2.35-1.03,5.3-1.55,8.83-1.55c3.67,0,6.7,0.6,9.08,1.8c2.38,1.2,4.16,2.87,5.33,5.01    c1.18,2.14,1.76,4.6,1.76,7.38h22.11c0-6.26-1.57-11.78-4.7-16.56c-3.13-4.78-7.55-8.51-13.24-11.19    c-5.7-2.68-12.36-4.03-19.99-4.03c-7.44,0-14.04,1.2-19.81,3.6c-5.77,2.4-10.3,5.76-13.6,10.06c-3.3,4.31-4.95,9.36-4.95,15.15    c0,4.52,0.92,8.48,2.75,11.87c1.84,3.39,4.35,6.36,7.56,8.9c3.2,2.54,6.89,4.77,11.05,6.68c4.17,1.91,8.56,3.61,13.17,5.12    c5.46,1.74,9.59,3.38,12.4,4.91c2.8,1.53,4.7,3.14,5.69,4.84c0.99,1.7,1.48,3.7,1.48,6c0,2.07-0.54,3.94-1.62,5.62    c-1.08,1.67-2.74,2.99-4.98,3.96c-2.24,0.97-5.12,1.45-8.65,1.45c-3.01,0-5.73-0.29-8.16-0.88c-2.43-0.59-4.5-1.54-6.21-2.86    c-1.72-1.32-3.04-3.02-3.96-5.12c-0.92-2.09-1.38-4.67-1.38-7.73h-22.25c0,5.89,1.2,10.97,3.6,15.26    c2.4,4.29,5.62,7.83,9.64,10.63c4.02,2.8,8.52,4.87,13.49,6.21c4.97,1.34,10.04,2.01,15.22,2.01c7.58,0,14.17-1.13,19.78-3.39    c5.6-2.26,9.95-5.53,13.03-9.82c3.08-4.28,4.63-9.44,4.63-15.47c0-5.7-1.28-10.63-3.85-14.8c-2.57-4.17-6.39-7.78-11.48-10.84    c-5.09-3.06-11.37-5.72-18.86-7.98c-4.24-1.32-7.84-2.67-10.81-4.06c-2.97-1.39-5.23-2.91-6.78-4.56s-2.33-3.58-2.33-5.79    c0-2.12,0.58-4.03,1.73-5.72C3577.94-1230.81,3579.7-1232.17,3582.05-1233.21z"></path>
		<rect x="3687.88" y="-1250.94" width="22.18" height="102.84"></rect>
		<polygon points="3834.61,-1184.69 3794.63,-1250.94 3772.46,-1250.94 3772.46,-1148.1 3794.63,-1148.1 3794.63,-1214.28     3834.54,-1148.1 3856.72,-1148.1 3856.72,-1250.94 3834.61,-1250.94   "></polygon>
		<path d="M3974.45-1244.72c-7.09-4.14-15.27-6.22-24.54-6.22h-9.75h-13.07h-9.18v102.84h9.61h12.64h9.61    c9.37,0,17.6-2.06,24.69-6.18c7.09-4.12,12.63-9.88,16.63-17.27c4-7.39,6-15.99,6-25.78v-4.38c0-9.79-2-18.37-6-25.74    C3987.08-1234.82,3981.54-1240.58,3974.45-1244.72z M3974.63-1197.33c0,6.78-0.94,12.5-2.83,17.16s-4.67,8.19-8.37,10.59    c-3.7,2.4-8.25,3.6-13.67,3.6h-9.61V-1233h9.75c5.37,0,9.89,1.18,13.56,3.53c3.67,2.36,6.45,5.84,8.33,10.45    c1.88,4.62,2.83,10.34,2.83,17.16V-1197.33z"></path>
		<path d="M4121.71-1195.64c3.34-2.59,5.94-5.86,7.8-9.82c1.86-3.96,2.79-8.76,2.79-14.41c0-6.78-1.53-12.47-4.59-17.06    c-3.06-4.59-7.45-8.08-13.17-10.45c-5.72-2.38-12.56-3.57-20.52-3.57h-38.71v102.84h22.18v-37.22h15.88l18.87,37.22h23.8v-1.06    l-22-41.89C4116.86-1192.36,4119.43-1193.87,4121.71-1195.64z M4077.49-1233h16.53c5.46,0,9.5,1.34,12.11,4.03    c2.61,2.68,3.92,6.33,3.92,10.95c0,3.01-0.59,5.63-1.77,7.84c-1.18,2.21-2.97,3.92-5.37,5.12c-2.4,1.2-5.39,1.8-8.97,1.8h-16.46    V-1233z"></path>
		<rect x="4192.65" y="-1250.94" width="22.18" height="102.84"></rect>
		<polygon points="4299.47,-1165.97 4299.47,-1192.32 4339.59,-1192.32 4339.59,-1209.62 4299.47,-1209.62 4299.47,-1233     4346.58,-1233 4346.58,-1250.94 4299.47,-1250.94 4292.33,-1250.94 4277.22,-1250.94 4277.22,-1148.1 4292.33,-1148.1     4299.47,-1148.1 4346.65,-1148.1 4346.65,-1165.97   "></polygon>
	</g>
</g>
<g>
	<path d="M2368.77-837.9c2.35-1.03,5.3-1.55,8.83-1.55c3.67,0,6.7,0.6,9.08,1.8c2.38,1.2,4.16,2.87,5.33,5.01   c1.18,2.14,1.76,4.6,1.76,7.38h22.11c0-6.26-1.57-11.78-4.7-16.56c-3.13-4.78-7.55-8.51-13.24-11.19   c-5.7-2.68-12.36-4.03-19.99-4.03c-7.44,0-14.04,1.2-19.81,3.6c-5.77,2.4-10.3,5.76-13.6,10.06c-3.3,4.31-4.95,9.36-4.95,15.15   c0,4.52,0.92,8.48,2.75,11.87c1.84,3.39,4.35,6.36,7.56,8.9c3.2,2.54,6.89,4.77,11.05,6.68c4.17,1.91,8.56,3.61,13.17,5.12   c5.46,1.74,9.59,3.38,12.4,4.91c2.8,1.53,4.7,3.14,5.69,4.84s1.48,3.7,1.48,6c0,2.07-0.54,3.94-1.62,5.62   c-1.08,1.67-2.74,2.99-4.98,3.96c-2.24,0.97-5.12,1.45-8.65,1.45c-3.01,0-5.73-0.29-8.16-0.88c-2.43-0.59-4.5-1.54-6.21-2.86   c-1.72-1.32-3.04-3.02-3.96-5.12c-0.92-2.09-1.38-4.67-1.38-7.73h-22.25c0,5.89,1.2,10.97,3.6,15.26c2.4,4.29,5.62,7.83,9.64,10.63   c4.02,2.8,8.52,4.87,13.49,6.21c4.97,1.34,10.04,2.01,15.22,2.01c7.58,0,14.17-1.13,19.78-3.39c5.6-2.26,9.95-5.53,13.03-9.82   c3.08-4.28,4.63-9.44,4.63-15.47c0-5.7-1.28-10.63-3.85-14.8c-2.57-4.17-6.39-7.78-11.48-10.84c-5.09-3.06-11.37-5.72-18.86-7.98   c-4.24-1.32-7.84-2.67-10.81-4.06c-2.97-1.39-5.23-2.91-6.78-4.56s-2.33-3.58-2.33-5.79c0-2.12,0.58-4.03,1.73-5.72   C2364.67-835.5,2366.42-836.87,2368.77-837.9z"></path>
	<rect x="2474.61" y="-855.63" width="22.18" height="102.84"></rect>
	<polygon points="2621.33,-789.38 2581.36,-855.63 2559.18,-855.63 2559.18,-752.79 2581.36,-752.79 2581.36,-818.97    2621.26,-752.79 2643.44,-752.79 2643.44,-855.63 2621.33,-855.63  "></polygon>
	<path d="M2761.17-849.42c-7.09-4.14-15.27-6.22-24.54-6.22h-9.75h-13.07h-9.18v102.84h9.61h12.64h9.61c9.37,0,17.6-2.06,24.69-6.18   c7.09-4.12,12.63-9.88,16.63-17.27c4-7.39,6-15.99,6-25.78v-4.38c0-9.79-2-18.37-6-25.74   C2773.8-839.52,2768.26-845.27,2761.17-849.42z M2761.35-802.02c0,6.78-0.94,12.5-2.83,17.16c-1.88,4.66-4.67,8.19-8.37,10.59   c-3.7,2.4-8.25,3.6-13.67,3.6h-9.61v-67.03h9.75c5.37,0,9.89,1.18,13.56,3.53c3.67,2.36,6.45,5.84,8.33,10.45   c1.88,4.62,2.83,10.34,2.83,17.16V-802.02z"></path>
	<path d="M2908.43-800.33c3.34-2.59,5.94-5.86,7.8-9.82c1.86-3.96,2.79-8.76,2.79-14.41c0-6.78-1.53-12.47-4.59-17.06   c-3.06-4.59-7.45-8.08-13.17-10.45c-5.72-2.38-12.56-3.57-20.52-3.57h-38.71v102.84h22.18v-37.22h15.88l18.87,37.22h23.8v-1.06   l-22-41.89C2903.58-797.05,2906.16-798.57,2908.43-800.33z M2864.22-837.69h16.53c5.46,0,9.5,1.34,12.11,4.03s3.92,6.33,3.92,10.95   c0,3.01-0.59,5.63-1.77,7.84c-1.18,2.21-2.97,3.92-5.37,5.12c-2.4,1.2-5.39,1.8-8.97,1.8h-16.46V-837.69z"></path>
	<rect x="2979.37" y="-855.63" width="22.18" height="102.84"></rect>
	<polygon points="3086.19,-770.66 3086.19,-797.01 3126.31,-797.01 3126.31,-814.31 3086.19,-814.31 3086.19,-837.69    3133.3,-837.69 3133.3,-855.63 3086.19,-855.63 3079.06,-855.63 3063.94,-855.63 3063.94,-752.79 3079.06,-752.79 3086.19,-752.79    3133.37,-752.79 3133.37,-770.66  "></polygon>
</g>
<rect x="3371.19" y="-843.28" width="1154.04" height="78.14"></rect>
</svg>