<svg xmlns="http://www.w3.org/2000/svg" xmlns:xlink="http://www.w3.org/1999/xlink" version="1.1" id="Calque_1" x="0px" y="0px" style="enable-background:new 0 0 283.46 85.24;" xml:space="preserve" viewBox="25.19 26.89 233.09 31.47">
<g>
	<path d="M45.15,28.72c-1.97-1.22-4.24-1.83-6.82-1.83s-4.86,0.61-6.83,1.83c-1.98,1.22-3.52,2.96-4.64,5.21   c-1.11,2.25-1.67,4.95-1.67,8.09v1.24c0,3.14,0.56,5.84,1.68,8.09s2.67,3.98,4.66,5.19c1.98,1.21,4.27,1.82,6.84,1.82   s4.85-0.61,6.81-1.82c1.96-1.21,3.5-2.94,4.61-5.19c1.11-2.25,1.66-4.95,1.66-8.09v-1.24c0-3.14-0.56-5.84-1.67-8.09   S47.12,29.94,45.15,28.72z M44.79,43.25c0,2.09-0.25,3.85-0.75,5.29c-0.5,1.44-1.23,2.53-2.19,3.27s-2.12,1.11-3.48,1.11   c-1.39,0-2.56-0.37-3.52-1.11c-0.96-0.74-1.69-1.83-2.2-3.27c-0.5-1.44-0.76-3.2-0.76-5.29v-1.28c0-2.1,0.25-3.87,0.75-5.3   s1.22-2.51,2.18-3.24c0.95-0.73,2.12-1.09,3.51-1.09c1.36,0,2.52,0.37,3.49,1.09c0.97,0.73,1.7,1.81,2.21,3.24s0.76,3.2,0.76,5.3   V43.25z"/>
	<path d="M85.6,29.16c-2.11-1.23-4.55-1.85-7.31-1.85h-2.9H71.5h-2.73v30.62h2.86h3.76h2.86c2.79,0,5.24-0.61,7.35-1.84   s3.76-2.94,4.95-5.14c1.19-2.2,1.79-4.76,1.79-7.68v-1.3c0-2.92-0.6-5.47-1.79-7.67C89.36,32.11,87.71,30.4,85.6,29.16z    M85.65,43.27c0,2.02-0.28,3.72-0.84,5.11c-0.56,1.39-1.39,2.44-2.49,3.15s-2.46,1.07-4.07,1.07h-2.86V32.65h2.9   c1.6,0,2.94,0.35,4.04,1.05c1.09,0.7,1.92,1.74,2.48,3.11c0.56,1.37,0.84,3.08,0.84,5.11V43.27z"/>
	<polygon points="128.18,39.61 116.28,39.61 116.28,27.31 109.66,27.31 109.66,57.93 116.28,57.93 116.28,44.93 128.18,44.93    128.18,57.93 134.79,57.93 134.79,27.31 128.18,27.31  "/>
	<path d="M169.75,47.44c0,1.32-0.2,2.39-0.6,3.21c-0.4,0.82-0.99,1.42-1.76,1.81c-0.77,0.39-1.71,0.58-2.82,0.58   c-1.09,0-2.03-0.19-2.82-0.58c-0.79-0.38-1.38-0.99-1.79-1.81c-0.41-0.82-0.61-1.89-0.61-3.21V27.31h-6.62v20.13   c0,2.37,0.5,4.37,1.5,5.99c1,1.63,2.4,2.85,4.19,3.68c1.79,0.83,3.84,1.24,6.15,1.24c2.3,0,4.34-0.41,6.11-1.24   s3.17-2.05,4.17-3.68c1.01-1.63,1.51-3.62,1.51-5.99V27.31h-6.62V47.44z"/>
	<polygon points="212.8,47.04 200.9,27.31 194.3,27.31 194.3,57.93 200.9,57.93 200.9,38.23 212.78,57.93 219.39,57.93    219.39,27.31 212.8,27.31  "/>
	<polygon points="244.23,52.61 244.23,44.77 256.17,44.77 256.17,39.61 244.23,39.61 244.23,32.65 258.26,32.65 258.26,27.31    244.23,27.31 242.11,27.31 237.61,27.31 237.61,57.93 242.11,57.93 244.23,57.93 258.28,57.93 258.28,52.61  "/>
</g>
</svg>