<svg xmlns="http://www.w3.org/2000/svg" xmlns:xlink="http://www.w3.org/1999/xlink" version="1.1" id="Calque_1" x="0px" y="0px" style="enable-background:new 0 0 283.46 283.46;" xml:space="preserve" viewBox="25.26 77.89 233.09 127.05">
<style type="text/css">
	.st0{fill:#020203;}
</style>
<path class="st0" d="M186.15,117.68c-2.51-5.3-5.85-9.98-9.82-13.92l4.02-6.96c0.21-0.37,0.17-0.83-0.1-1.15  c-9.6-11.29-23.61-17.76-38.44-17.76c-14.82,0-28.83,6.48-38.44,17.76c-0.27,0.32-0.32,0.78-0.1,1.15l4.02,6.96  c-3.97,3.95-7.31,8.63-9.82,13.92c-0.19,0.39-0.09,0.84,0.2,1.13l-0.01,0.01l29.94,29.94c-0.3,1.59-0.46,3.25-0.46,5.02  c0,0.55,0.45,1,1,1h27.35c0.55,0,1-0.45,1-1c0-1.77-0.16-3.43-0.46-5.02l29.94-29.94l-0.01-0.01  C186.24,118.52,186.34,118.07,186.15,117.68z M141.8,79.88c14,0,27.25,6.01,36.45,16.53l-3.42,5.92  c-8.84-8.07-20.47-12.7-33.04-12.7c-12.56,0-24.2,4.63-33.04,12.7l-3.42-5.92C114.56,85.9,127.8,79.88,141.8,79.88z M151.43,138.58  c-2.29-3.06-5.8-4.82-9.62-4.82c-3.83,0-7.33,1.76-9.62,4.82c-0.49,0.65-0.93,1.31-1.35,1.97l-21.04-36.44  c8.51-7.92,19.8-12.48,32.01-12.48c12.2,0,23.49,4.56,32.01,12.48l-21.04,36.44C152.36,139.89,151.91,139.24,151.43,138.58z   M99.57,117.91c2.29-4.66,5.26-8.81,8.74-12.35l21.37,37.02c-0.65,1.27-1.16,2.56-1.55,3.9L99.57,117.91z M129.14,152.77  c0.16-4.97,1.58-8.9,4.63-12.99c1.91-2.55,4.83-4.02,8.02-4.02s6.11,1.46,8.02,4.02c3.06,4.09,4.47,8.03,4.64,12.99H129.14z   M153.91,142.57l21.37-37.02c3.49,3.55,6.45,7.7,8.74,12.35l-28.56,28.56C155.07,145.14,154.56,143.84,153.91,142.57z"/>
<path d="M45.22,175.3c-1.97-1.22-4.24-1.83-6.82-1.83s-4.86,0.61-6.83,1.83c-1.98,1.22-3.52,2.96-4.64,5.21  c-1.11,2.25-1.67,4.95-1.67,8.09v1.24c0,3.14,0.56,5.84,1.68,8.09s2.67,3.98,4.66,5.19c1.98,1.21,4.27,1.82,6.84,1.82  s4.85-0.61,6.81-1.82c1.96-1.21,3.5-2.94,4.61-5.19c1.11-2.25,1.66-4.95,1.66-8.09v-1.24c0-3.14-0.56-5.84-1.67-8.09  S47.19,176.51,45.22,175.3z M44.85,189.83c0,2.09-0.25,3.85-0.75,5.29c-0.5,1.44-1.23,2.53-2.19,3.27s-2.12,1.11-3.48,1.11  c-1.39,0-2.56-0.37-3.52-1.11c-0.96-0.74-1.69-1.83-2.2-3.27c-0.5-1.44-0.76-3.2-0.76-5.29v-1.28c0-2.1,0.25-3.87,0.75-5.3  s1.22-2.51,2.18-3.24c0.95-0.73,2.12-1.09,3.51-1.09c1.36,0,2.52,0.37,3.49,1.09c0.97,0.73,1.7,1.81,2.21,3.24s0.76,3.2,0.76,5.3  V189.83z"/>
<path d="M85.67,175.74c-2.11-1.23-4.55-1.85-7.31-1.85h-2.9h-3.89h-2.73v30.62h2.86h3.76h2.86c2.79,0,5.24-0.61,7.35-1.84  s3.76-2.94,4.95-5.14c1.19-2.2,1.79-4.76,1.79-7.68v-1.3c0-2.92-0.6-5.47-1.79-7.67C89.43,178.68,87.78,176.97,85.67,175.74z   M85.72,189.85c0,2.02-0.28,3.72-0.84,5.11c-0.56,1.39-1.39,2.44-2.49,3.15s-2.46,1.07-4.07,1.07h-2.86v-19.96h2.9  c1.6,0,2.94,0.35,4.04,1.05c1.09,0.7,1.92,1.74,2.48,3.11c0.56,1.37,0.84,3.08,0.84,5.11V189.85z"/>
<polygon points="128.25,186.19 116.35,186.19 116.35,173.89 109.73,173.89 109.73,204.51 116.35,204.51 116.35,191.51   128.25,191.51 128.25,204.51 134.86,204.51 134.86,173.89 128.25,173.89 "/>
<path d="M169.82,194.01c0,1.32-0.2,2.39-0.6,3.21c-0.4,0.82-0.99,1.42-1.76,1.81c-0.77,0.39-1.71,0.58-2.82,0.58  c-1.09,0-2.03-0.19-2.82-0.58c-0.79-0.38-1.38-0.99-1.79-1.81c-0.41-0.82-0.61-1.89-0.61-3.21v-20.13h-6.62v20.13  c0,2.37,0.5,4.37,1.5,5.99c1,1.63,2.4,2.85,4.19,3.68c1.79,0.83,3.84,1.24,6.15,1.24c2.3,0,4.34-0.41,6.11-1.24s3.17-2.05,4.17-3.68  c1.01-1.63,1.51-3.62,1.51-5.99v-20.13h-6.62V194.01z"/>
<polygon points="212.87,193.61 200.97,173.89 194.37,173.89 194.37,204.51 200.97,204.51 200.97,184.8 212.85,204.51 219.45,204.51   219.45,173.89 212.87,173.89 "/>
<polygon points="244.3,199.18 244.3,191.34 256.24,191.34 256.24,186.19 244.3,186.19 244.3,179.23 258.33,179.23 258.33,173.89   244.3,173.89 242.17,173.89 237.67,173.89 237.67,204.51 242.17,204.51 244.3,204.51 258.35,204.51 258.35,199.18 "/>
</svg>